# xmcd
#
# Track frame offsets:
#	150
#	9300
#	19415
#	29906
#	42221
#	56196
#	66407
#	79794
#	89946
#	104092
#	116945
#	129204
#	142190
#	154454
#	168742
#	182327
#	196491
#	211477
#	224089
#	235687
#	251565
#
# Disc length: 3510 seconds
#
# Revision: 6
# Processed by: cddbd v1.5.1PL0 Copyright (c) Steve Scherf et al.
# Submitted via: audiograbber 1.83.01
#
DISCID=4f0db415
DTITLE=Various Artist - Country Gold Vol. 2
DYEAR=1900
DGENRE=Country
TTITLE0=Frankie Laine and Doris Day - Sugarbush
TTITLE1=Hank Williams - Honky Tonk Blues
TTITLE2=Eddy Arnold - There´s Been A Change In Me
TTITLE3=Gene Autry - Peter Cottontail
TTITLE4=Hank Williams - Ramblin´ Man
TTITLE5=Margaret Whitning and Jimmy Wakely - Slipping Around
TTITLE6=Hank Snow - I Don´t Hurt Anymore
TTITLE7=Moon Mullican - I´ll Sail My Ship Alone
TTITLE8=Patsy Montana - I Want To Be A Country´s Sweetheart
TTITLE9=Red Foley - Chattanoogie Shoe Shine Boy
TTITLE10=Red Ingle - Cigareets, Whiskey And Wild, Wild Women
TTITLE11=Roy Acuff - Wabash Cannonball
TTITLE12=Ted Daffan´s Texans - Born To Lose
TTITLE13=Carter Family - Wildwood Flower
TTITLE14=Vaughn Monroe - Ghost Riders In The Sky
TTITLE15=Vernon Dallhart - The Prisoners Song
TTITLE16=Wendell Hall - It Ain´t Gonna Rain No Mo´
TTITLE17=Eddy Arnold - Just A Little Lovin´
TTITLE18=Frankie Laine - Rose, Rose I Love You
TTITLE19=Jimmie Rodgers - Blue Yodel
TTITLE20=Hank Williams - Kaw-Liga
EXTD=
EXTT0=
EXTT1=
EXTT2=
EXTT3=
EXTT4=
EXTT5=
EXTT6=
EXTT7=
EXTT8=
EXTT9=
EXTT10=
EXTT11=
EXTT12=
EXTT13=
EXTT14=
EXTT15=
EXTT16=
EXTT17=
EXTT18=
EXTT19=
EXTT20=
PLAYORDER=
